<?xml version="1.0"?>
<!-- Generated by SVGo and Plotinum VG -->
<svg width="4in" height="2in"
	xmlns="http://www.w3.org/2000/svg"
	xmlns:xlink="http://www.w3.org/1999/xlink">
<g transform="scale(1, -1) translate(0, -180)">
<path d="M0,0L360,0L360,180L0,180Z" style="fill:#FFFFFF" />
<g transform="rotate(90)">
<text x="85.123" y="14.443" transform="scale(1, -1)"
	style="font-family:Times;font-weight:normal;font-style:normal;font-size:12pt">°C</text>
</g>
<text x="19.27" y="-49.945" transform="scale(1, -1)"
	style="font-family:Times;font-weight:normal;font-style:normal;font-size:10pt">16</text>
<text x="19.27" y="-103.23" transform="scale(1, -1)"
	style="font-family:Times;font-weight:normal;font-style:normal;font-size:10pt">17</text>
<text x="19.27" y="-156.51" transform="scale(1, -1)"
	style="font-family:Times;font-weight:normal;font-style:normal;font-size:10pt">18</text>
<path d="M34.895,55.847L44.895,55.847" style="fill:none;stroke:#000000;stroke-width:0.625" />
<path d="M34.895,109.13L44.895,109.13" style="fill:none;stroke:#000000;stroke-width:0.625" />
<path d="M34.895,162.41L44.895,162.41" style="fill:none;stroke:#000000;stroke-width:0.625" />
<path d="M39.895,29.206L44.895,29.206" style="fill:none;stroke:#000000;stroke-width:0.625" />
<path d="M39.895,82.487L44.895,82.487" style="fill:none;stroke:#000000;stroke-width:0.625" />
<path d="M39.895,135.77L44.895,135.77" style="fill:none;stroke:#000000;stroke-width:0.625" />
<path d="M44.895,9.375L44.895,176.88" style="fill:none;stroke:#000000;stroke-width:0.625" />
<path d="M58.333,176.88A3.125,3.125 0 1 1 52.083,176.88A3.125,3.125 0 1 1 58.333,176.88Z" style="fill:none;stroke:#000000;stroke-width:0.625" />
<path d="M61.05,174.3A3.125,3.125 0 1 1 54.8,174.3A3.125,3.125 0 1 1 61.05,174.3Z" style="fill:none;stroke:#000000;stroke-width:0.625" />
<path d="M63.768,172.29A3.125,3.125 0 1 1 57.518,172.29A3.125,3.125 0 1 1 63.768,172.29Z" style="fill:none;stroke:#000000;stroke-width:0.625" />
<path d="M66.486,165.33L66.486,165.33A3.125,3.125 0 1 1 60.236,165.33A3.125,3.125 0 1 1 66.486,165.33Z" style="fill:none;stroke:#000000;stroke-width:0.625" />
<path d="M69.158,169.9A3.125,3.125 0 1 1 62.908,169.9A3.125,3.125 0 1 1 69.158,169.9Z" style="fill:none;stroke:#000000;stroke-width:0.625" />
<path d="M71.876,165.51A3.125,3.125 0 1 1 65.626,165.51A3.125,3.125 0 1 1 71.876,165.51Z" style="fill:none;stroke:#000000;stroke-width:0.625" />
<path d="M74.639,165.61A3.125,3.125 0 1 1 68.389,165.61A3.125,3.125 0 1 1 74.639,165.61Z" style="fill:none;stroke:#000000;stroke-width:0.625" />
<path d="M77.357,167.53A3.125,3.125 0 1 1 71.107,167.53A3.125,3.125 0 1 1 77.357,167.53Z" style="fill:none;stroke:#000000;stroke-width:0.625" />
<path d="M80.074,157.38A3.125,3.125 0 1 1 73.824,157.38A3.125,3.125 0 1 1 80.074,157.38Z" style="fill:none;stroke:#000000;stroke-width:0.625" />
<path d="M82.792,169.74A3.125,3.125 0 1 1 76.542,169.74A3.125,3.125 0 1 1 82.792,169.74Z" style="fill:none;stroke:#000000;stroke-width:0.625" />
<path d="M85.51,156.05A3.125,3.125 0 1 1 79.26,156.05A3.125,3.125 0 1 1 85.51,156.05Z" style="fill:none;stroke:#000000;stroke-width:0.625" />
<path d="M88.227,151.23A3.125,3.125 0 1 1 81.977,151.23A3.125,3.125 0 1 1 88.227,151.23Z" style="fill:none;stroke:#000000;stroke-width:0.625" />
<path d="M90.945,148.98A3.125,3.125 0 1 1 84.695,148.98A3.125,3.125 0 1 1 90.945,148.98Z" style="fill:none;stroke:#000000;stroke-width:0.625" />
<path d="M93.663,141.25L93.663,141.25A3.125,3.125 0 1 1 87.413,141.25A3.125,3.125 0 1 1 93.663,141.25Z" style="fill:none;stroke:#000000;stroke-width:0.625" />
<path d="M96.381,148.04L96.381,148.04A3.125,3.125 0 1 1 90.131,148.04A3.125,3.125 0 1 1 96.381,148.04Z" style="fill:none;stroke:#000000;stroke-width:0.625" />
<path d="M99.098,136.42L99.098,136.42A3.125,3.125 0 1 1 92.848,136.42A3.125,3.125 0 1 1 99.098,136.42Z" style="fill:none;stroke:#000000;stroke-width:0.625" />
<path d="M101.82,145.09L101.82,145.09A3.125,3.125 0 1 1 95.566,145.09A3.125,3.125 0 1 1 101.82,145.09Z" style="fill:none;stroke:#000000;stroke-width:0.625" />
<path d="M104.53,144.81L104.53,144.81A3.125,3.125 0 1 1 98.284,144.81A3.125,3.125 0 1 1 104.53,144.81Z" style="fill:none;stroke:#000000;stroke-width:0.625" />
<path d="M107.21,137.93A3.125,3.125 0 1 1 100.96,137.93A3.125,3.125 0 1 1 107.21,137.93Z" style="fill:none;stroke:#000000;stroke-width:0.625" />
<path d="M109.92,138.9L109.92,138.9A3.125,3.125 0 1 1 103.67,138.9A3.125,3.125 0 1 1 109.92,138.9Z" style="fill:none;stroke:#000000;stroke-width:0.625" />
<path d="M112.69,139.48L112.69,139.48A3.125,3.125 0 1 1 106.44,139.48A3.125,3.125 0 1 1 112.69,139.48Z" style="fill:none;stroke:#000000;stroke-width:0.625" />
<path d="M115.4,132.63L115.4,132.63A3.125,3.125 0 1 1 109.15,132.63A3.125,3.125 0 1 1 115.4,132.63Z" style="fill:none;stroke:#000000;stroke-width:0.625" />
<path d="M118.12,137.51A3.125,3.125 0 1 1 111.87,137.51A3.125,3.125 0 1 1 118.12,137.51Z" style="fill:none;stroke:#000000;stroke-width:0.625" />
<path d="M120.84,135.29A3.125,3.125 0 1 1 114.59,135.29A3.125,3.125 0 1 1 120.84,135.29Z" style="fill:none;stroke:#000000;stroke-width:0.625" />
<path d="M123.56,131.38A3.125,3.125 0 1 1 117.31,131.38A3.125,3.125 0 1 1 123.56,131.38Z" style="fill:none;stroke:#000000;stroke-width:0.625" />
<path d="M126.28,125.24L126.28,125.24A3.125,3.125 0 1 1 120.03,125.24A3.125,3.125 0 1 1 126.28,125.24Z" style="fill:none;stroke:#000000;stroke-width:0.625" />
<path d="M128.99,121.71A3.125,3.125 0 1 1 122.74,121.71A3.125,3.125 0 1 1 128.99,121.71Z" style="fill:none;stroke:#000000;stroke-width:0.625" />
<path d="M131.71,110.86A3.125,3.125 0 1 1 125.46,110.86A3.125,3.125 0 1 1 131.71,110.86Z" style="fill:none;stroke:#000000;stroke-width:0.625" />
<path d="M134.43,121.6A3.125,3.125 0 1 1 128.18,121.6A3.125,3.125 0 1 1 134.43,121.6Z" style="fill:none;stroke:#000000;stroke-width:0.625" />
<path d="M137.15,131.21A3.125,3.125 0 1 1 130.9,131.21A3.125,3.125 0 1 1 137.15,131.21Z" style="fill:none;stroke:#000000;stroke-width:0.625" />
<path d="M139.86,120.15A3.125,3.125 0 1 1 133.61,120.15A3.125,3.125 0 1 1 139.86,120.15Z" style="fill:none;stroke:#000000;stroke-width:0.625" />
<path d="M142.58,128.96A3.125,3.125 0 1 1 136.33,128.96A3.125,3.125 0 1 1 142.58,128.96Z" style="fill:none;stroke:#000000;stroke-width:0.625" />
<path d="M145.3,123.69A3.125,3.125 0 1 1 139.05,123.69A3.125,3.125 0 1 1 145.3,123.69Z" style="fill:none;stroke:#000000;stroke-width:0.625" />
<path d="M148.02,123.62L148.02,123.62A3.125,3.125 0 1 1 141.77,123.62A3.125,3.125 0 1 1 148.02,123.62Z" style="fill:none;stroke:#000000;stroke-width:0.625" />
<path d="M150.74,114.87L150.74,114.87A3.125,3.125 0 1 1 144.49,114.87A3.125,3.125 0 1 1 150.74,114.87Z" style="fill:none;stroke:#000000;stroke-width:0.625" />
<path d="M153.45,114.55A3.125,3.125 0 1 1 147.2,114.55A3.125,3.125 0 1 1 153.45,114.55Z" style="fill:none;stroke:#000000;stroke-width:0.625" />
<path d="M156.17,121.47A3.125,3.125 0 1 1 149.92,121.47A3.125,3.125 0 1 1 156.17,121.47Z" style="fill:none;stroke:#000000;stroke-width:0.625" />
<path d="M158.89,125.77A3.125,3.125 0 1 1 152.64,125.77A3.125,3.125 0 1 1 158.89,125.77Z" style="fill:none;stroke:#000000;stroke-width:0.625" />
<path d="M161.61,125.63A3.125,3.125 0 1 1 155.36,125.63A3.125,3.125 0 1 1 161.61,125.63Z" style="fill:none;stroke:#000000;stroke-width:0.625" />
<path d="M164.28,116.63A3.125,3.125 0 1 1 158.03,116.63A3.125,3.125 0 1 1 164.28,116.63Z" style="fill:none;stroke:#000000;stroke-width:0.625" />
<path d="M167.04,112.02A3.125,3.125 0 1 1 160.79,112.02A3.125,3.125 0 1 1 167.04,112.02Z" style="fill:none;stroke:#000000;stroke-width:0.625" />
<path d="M169.76,120.53A3.125,3.125 0 1 1 163.51,120.53A3.125,3.125 0 1 1 169.76,120.53Z" style="fill:none;stroke:#000000;stroke-width:0.625" />
<path d="M172.48,118.69A3.125,3.125 0 1 1 166.23,118.69A3.125,3.125 0 1 1 172.48,118.69Z" style="fill:none;stroke:#000000;stroke-width:0.625" />
<path d="M175.19,114.89A3.125,3.125 0 1 1 168.94,114.89A3.125,3.125 0 1 1 175.19,114.89Z" style="fill:none;stroke:#000000;stroke-width:0.625" />
<path d="M177.91,114.92A3.125,3.125 0 1 1 171.66,114.92A3.125,3.125 0 1 1 177.91,114.92Z" style="fill:none;stroke:#000000;stroke-width:0.625" />
<path d="M180.63,115.93A3.125,3.125 0 1 1 174.38,115.93A3.125,3.125 0 1 1 180.63,115.93Z" style="fill:none;stroke:#000000;stroke-width:0.625" />
<path d="M183.35,111.63A3.125,3.125 0 1 1 177.1,111.63A3.125,3.125 0 1 1 183.35,111.63Z" style="fill:none;stroke:#000000;stroke-width:0.625" />
<path d="M186.07,107.53A3.125,3.125 0 1 1 179.82,107.53A3.125,3.125 0 1 1 186.07,107.53Z" style="fill:none;stroke:#000000;stroke-width:0.625" />
<path d="M188.78,107.29A3.125,3.125 0 1 1 182.53,107.29A3.125,3.125 0 1 1 188.78,107.29Z" style="fill:none;stroke:#000000;stroke-width:0.625" />
<path d="M191.46,103.07A3.125,3.125 0 1 1 185.21,103.07A3.125,3.125 0 1 1 191.46,103.07Z" style="fill:none;stroke:#000000;stroke-width:0.625" />
<path d="M194.17,97.77L194.17,97.77A3.125,3.125 0 1 1 187.92,97.77A3.125,3.125 0 1 1 194.17,97.77Z" style="fill:none;stroke:#000000;stroke-width:0.625" />
<path d="M196.94,77.687A3.125,3.125 0 1 1 190.69,77.687A3.125,3.125 0 1 1 196.94,77.687Z" style="fill:none;stroke:#000000;stroke-width:0.625" />
<path d="M199.65,101.96L199.65,101.96A3.125,3.125 0 1 1 193.4,101.96A3.125,3.125 0 1 1 199.65,101.96Z" style="fill:none;stroke:#000000;stroke-width:0.625" />
<path d="M202.37,101.78A3.125,3.125 0 1 1 196.12,101.78A3.125,3.125 0 1 1 202.37,101.78Z" style="fill:none;stroke:#000000;stroke-width:0.625" />
<path d="M205.09,98.91A3.125,3.125 0 1 1 198.84,98.91A3.125,3.125 0 1 1 205.09,98.91Z" style="fill:none;stroke:#000000;stroke-width:0.625" />
<path d="M207.81,90.071L207.81,90.071A3.125,3.125 0 1 1 201.56,90.071A3.125,3.125 0 1 1 207.81,90.071Z" style="fill:none;stroke:#000000;stroke-width:0.625" />
<path d="M210.48,101.48L210.48,101.48A3.125,3.125 0 1 1 204.23,101.48A3.125,3.125 0 1 1 210.48,101.48Z" style="fill:none;stroke:#000000;stroke-width:0.625" />
<path d="M213.24,99.582A3.125,3.125 0 1 1 206.99,99.582A3.125,3.125 0 1 1 213.24,99.582Z" style="fill:none;stroke:#000000;stroke-width:0.625" />
<path d="M215.96,96.394L215.96,96.394A3.125,3.125 0 1 1 209.71,96.394A3.125,3.125 0 1 1 215.96,96.394Z" style="fill:none;stroke:#000000;stroke-width:0.625" />
<path d="M218.68,98.435A3.125,3.125 0 1 1 212.43,98.435A3.125,3.125 0 1 1 218.68,98.435Z" style="fill:none;stroke:#000000;stroke-width:0.625" />
<path d="M221.4,95.99L221.4,95.99A3.125,3.125 0 1 1 215.15,95.99A3.125,3.125 0 1 1 221.4,95.99Z" style="fill:none;stroke:#000000;stroke-width:0.625" />
<path d="M224.11,88.996L224.11,88.996A3.125,3.125 0 1 1 217.86,88.996A3.125,3.125 0 1 1 224.11,88.996Z" style="fill:none;stroke:#000000;stroke-width:0.625" />
<path d="M226.83,81.292A3.125,3.125 0 1 1 220.58,81.292A3.125,3.125 0 1 1 226.83,81.292Z" style="fill:none;stroke:#000000;stroke-width:0.625" />
<path d="M229.55,87.279L229.55,87.279A3.125,3.125 0 1 1 223.3,87.279A3.125,3.125 0 1 1 229.55,87.279Z" style="fill:none;stroke:#000000;stroke-width:0.625" />
<path d="M232.27,84.757L232.27,84.757A3.125,3.125 0 1 1 226.02,84.757A3.125,3.125 0 1 1 232.27,84.757Z" style="fill:none;stroke:#000000;stroke-width:0.625" />
<path d="M234.98,91.511L234.98,91.511A3.125,3.125 0 1 1 228.73,91.511A3.125,3.125 0 1 1 234.98,91.511Z" style="fill:none;stroke:#000000;stroke-width:0.625" />
<path d="M237.7,94.206A3.125,3.125 0 1 1 231.45,94.206A3.125,3.125 0 1 1 237.7,94.206Z" style="fill:none;stroke:#000000;stroke-width:0.625" />
<path d="M240.42,90.499A3.125,3.125 0 1 1 234.17,90.499A3.125,3.125 0 1 1 240.42,90.499Z" style="fill:none;stroke:#000000;stroke-width:0.625" />
<path d="M243.14,89.981L243.14,89.981A3.125,3.125 0 1 1 236.89,89.981A3.125,3.125 0 1 1 243.14,89.981Z" style="fill:none;stroke:#000000;stroke-width:0.625" />
<path d="M245.86,79.765A3.125,3.125 0 1 1 239.61,79.765A3.125,3.125 0 1 1 245.86,79.765Z" style="fill:none;stroke:#000000;stroke-width:0.625" />
<path d="M248.57,81.557A3.125,3.125 0 1 1 242.32,81.557A3.125,3.125 0 1 1 248.57,81.557Z" style="fill:none;stroke:#000000;stroke-width:0.625" />
<path d="M251.29,84.242L251.29,84.242A3.125,3.125 0 1 1 245.04,84.242A3.125,3.125 0 1 1 251.29,84.242Z" style="fill:none;stroke:#000000;stroke-width:0.625" />
<path d="M254.01,76.723L254.01,76.723A3.125,3.125 0 1 1 247.76,76.723A3.125,3.125 0 1 1 254.01,76.723Z" style="fill:none;stroke:#000000;stroke-width:0.625" />
<path d="M256.68,79.129A3.125,3.125 0 1 1 250.43,79.129A3.125,3.125 0 1 1 256.68,79.129Z" style="fill:none;stroke:#000000;stroke-width:0.625" />
<path d="M259.44,76.025A3.125,3.125 0 1 1 253.19,76.025A3.125,3.125 0 1 1 259.44,76.025Z" style="fill:none;stroke:#000000;stroke-width:0.625" />
<path d="M262.16,76.514A3.125,3.125 0 1 1 255.91,76.514A3.125,3.125 0 1 1 262.16,76.514Z" style="fill:none;stroke:#000000;stroke-width:0.625" />
<path d="M264.88,71.763A3.125,3.125 0 1 1 258.63,71.763A3.125,3.125 0 1 1 264.88,71.763Z" style="fill:none;stroke:#000000;stroke-width:0.625" />
<path d="M267.6,72.701L267.6,72.701A3.125,3.125 0 1 1 261.35,72.701A3.125,3.125 0 1 1 267.6,72.701Z" style="fill:none;stroke:#000000;stroke-width:0.625" />
<path d="M270.32,72.983A3.125,3.125 0 1 1 264.07,72.983A3.125,3.125 0 1 1 270.32,72.983Z" style="fill:none;stroke:#000000;stroke-width:0.625" />
<path d="M273.03,73.227A3.125,3.125 0 1 1 266.78,73.227A3.125,3.125 0 1 1 273.03,73.227Z" style="fill:none;stroke:#000000;stroke-width:0.625" />
<path d="M275.75,69.562A3.125,3.125 0 1 1 269.5,69.562A3.125,3.125 0 1 1 275.75,69.562Z" style="fill:none;stroke:#000000;stroke-width:0.625" />
<path d="M278.47,46.666A3.125,3.125 0 1 1 272.22,46.666A3.125,3.125 0 1 1 278.47,46.666Z" style="fill:none;stroke:#000000;stroke-width:0.625" />
<path d="M281.19,57.937A3.125,3.125 0 1 1 274.94,57.937A3.125,3.125 0 1 1 281.19,57.937Z" style="fill:none;stroke:#000000;stroke-width:0.625" />
<path d="M283.9,33.346A3.125,3.125 0 1 1 277.65,33.346A3.125,3.125 0 1 1 283.9,33.346Z" style="fill:none;stroke:#000000;stroke-width:0.625" />
<path d="M286.62,14.884A3.125,3.125 0 1 1 280.37,14.884A3.125,3.125 0 1 1 286.62,14.884Z" style="fill:none;stroke:#000000;stroke-width:0.625" />
<path d="M289.34,28.436A3.125,3.125 0 1 1 283.09,28.436A3.125,3.125 0 1 1 289.34,28.436Z" style="fill:none;stroke:#000000;stroke-width:0.625" />
<path d="M292.06,71.077A3.125,3.125 0 1 1 285.81,71.077A3.125,3.125 0 1 1 292.06,71.077Z" style="fill:none;stroke:#000000;stroke-width:0.625" />
<path d="M294.77,72.343L294.77,72.343A3.125,3.125 0 1 1 288.52,72.343A3.125,3.125 0 1 1 294.77,72.343Z" style="fill:none;stroke:#000000;stroke-width:0.625" />
<path d="M297.49,33.164A3.125,3.125 0 1 1 291.24,33.164A3.125,3.125 0 1 1 297.49,33.164Z" style="fill:none;stroke:#000000;stroke-width:0.625" />
<path d="M300.16,65.984A3.125,3.125 0 1 1 293.91,65.984A3.125,3.125 0 1 1 300.16,65.984Z" style="fill:none;stroke:#000000;stroke-width:0.625" />
<path d="M302.93,41.748L302.93,41.748A3.125,3.125 0 1 1 296.68,41.748A3.125,3.125 0 1 1 302.93,41.748Z" style="fill:none;stroke:#000000;stroke-width:0.625" />
<path d="M305.65,66.191A3.125,3.125 0 1 1 299.4,66.191A3.125,3.125 0 1 1 305.65,66.191Z" style="fill:none;stroke:#000000;stroke-width:0.625" />
<path d="M308.36,76.309A3.125,3.125 0 1 1 302.11,76.309A3.125,3.125 0 1 1 308.36,76.309Z" style="fill:none;stroke:#000000;stroke-width:0.625" />
<path d="M311.08,56.834A3.125,3.125 0 1 1 304.83,56.834A3.125,3.125 0 1 1 311.08,56.834Z" style="fill:none;stroke:#000000;stroke-width:0.625" />
<path d="M313.8,60.128A3.125,3.125 0 1 1 307.55,60.128A3.125,3.125 0 1 1 313.8,60.128Z" style="fill:none;stroke:#000000;stroke-width:0.625" />
<path d="M316.52,66.84A3.125,3.125 0 1 1 310.27,66.84A3.125,3.125 0 1 1 316.52,66.84Z" style="fill:none;stroke:#000000;stroke-width:0.625" />
<path d="M319.23,56.449A3.125,3.125 0 1 1 312.98,56.449A3.125,3.125 0 1 1 319.23,56.449Z" style="fill:none;stroke:#000000;stroke-width:0.625" />
<path d="M321.91,20.38A3.125,3.125 0 1 1 315.66,20.38A3.125,3.125 0 1 1 321.91,20.38Z" style="fill:none;stroke:#000000;stroke-width:0.625" />
<path d="M324.67,57.419A3.125,3.125 0 1 1 318.42,57.419A3.125,3.125 0 1 1 324.67,57.419Z" style="fill:none;stroke:#000000;stroke-width:0.625" />
<path d="M327.39,61.096L327.39,61.096A3.125,3.125 0 1 1 321.14,61.096A3.125,3.125 0 1 1 327.39,61.096Z" style="fill:none;stroke:#000000;stroke-width:0.625" />
<path d="M330.11,27.934L330.11,27.934A3.125,3.125 0 1 1 323.86,27.934A3.125,3.125 0 1 1 330.11,27.934Z" style="fill:none;stroke:#000000;stroke-width:0.625" />
<path d="M332.82,65.943A3.125,3.125 0 1 1 326.57,65.943A3.125,3.125 0 1 1 332.82,65.943Z" style="fill:none;stroke:#000000;stroke-width:0.625" />
<path d="M335.54,56.262L335.54,56.262A3.125,3.125 0 1 1 329.29,56.262A3.125,3.125 0 1 1 335.54,56.262Z" style="fill:none;stroke:#000000;stroke-width:0.625" />
<path d="M338.26,58.525A3.125,3.125 0 1 1 332.01,58.525A3.125,3.125 0 1 1 338.26,58.525Z" style="fill:none;stroke:#000000;stroke-width:0.625" />
<path d="M340.98,57.119A3.125,3.125 0 1 1 334.73,57.119A3.125,3.125 0 1 1 340.98,57.119Z" style="fill:none;stroke:#000000;stroke-width:0.625" />
<path d="M343.69,47.636A3.125,3.125 0 1 1 337.44,47.636A3.125,3.125 0 1 1 343.69,47.636Z" style="fill:none;stroke:#000000;stroke-width:0.625" />
<path d="M346.41,44.853L346.41,44.853A3.125,3.125 0 1 1 340.16,44.853A3.125,3.125 0 1 1 346.41,44.853Z" style="fill:none;stroke:#000000;stroke-width:0.625" />
<path d="M349.08,43.706A3.125,3.125 0 1 1 342.83,43.706A3.125,3.125 0 1 1 349.08,43.706Z" style="fill:none;stroke:#000000;stroke-width:0.625" />
<path d="M351.8,40.471L351.8,40.471A3.125,3.125 0 1 1 345.55,40.471A3.125,3.125 0 1 1 351.8,40.471Z" style="fill:none;stroke:#000000;stroke-width:0.625" />
<path d="M354.56,40.161A3.125,3.125 0 1 1 348.31,40.161A3.125,3.125 0 1 1 354.56,40.161Z" style="fill:none;stroke:#000000;stroke-width:0.625" />
<path d="M357.28,16.591A3.125,3.125 0 1 1 351.03,16.591A3.125,3.125 0 1 1 357.28,16.591Z" style="fill:none;stroke:#000000;stroke-width:0.625" />
<path d="M360,9.375A3.125,3.125 0 1 1 353.75,9.375A3.125,3.125 0 1 1 360,9.375Z" style="fill:none;stroke:#000000;stroke-width:0.625" />
</g>
</svg>
