<?xml version="1.0"?>
<!-- Generated by SVGo and Plotinum VG -->
<svg width="4in" height="2in"
	xmlns="http://www.w3.org/2000/svg"
	xmlns:xlink="http://www.w3.org/1999/xlink">
<g transform="scale(1, -1) translate(0, -180)">
<path d="M0,0L360,0L360,180L0,180Z" style="fill:#FFFFFF" />
<g transform="rotate(90)">
<text x="85.123" y="14.443" transform="scale(1, -1)"
	style="font-family:Times;font-weight:normal;font-style:normal;font-size:12pt">°C</text>
</g>
<text x="19.27" y="-17.723" transform="scale(1, -1)"
	style="font-family:Times;font-weight:normal;font-style:normal;font-size:10pt">-18.6</text>
<text x="28.645" y="-69.848" transform="scale(1, -1)"
	style="font-family:Times;font-weight:normal;font-style:normal;font-size:10pt">-18</text>
<text x="19.27" y="-121.97" transform="scale(1, -1)"
	style="font-family:Times;font-weight:normal;font-style:normal;font-size:10pt">-17.4</text>
<path d="M48.433,23.625L58.433,23.625" style="fill:none;stroke:#000000;stroke-width:0.625" />
<path d="M48.433,75.75L58.433,75.75" style="fill:none;stroke:#000000;stroke-width:0.625" />
<path d="M48.433,127.88L58.433,127.88" style="fill:none;stroke:#000000;stroke-width:0.625" />
<path d="M53.433,23.625L58.433,23.625" style="fill:none;stroke:#000000;stroke-width:0.625" />
<path d="M53.433,41L58.433,41" style="fill:none;stroke:#000000;stroke-width:0.625" />
<path d="M53.433,58.375L58.433,58.375" style="fill:none;stroke:#000000;stroke-width:0.625" />
<path d="M53.433,75.75L58.433,75.75" style="fill:none;stroke:#000000;stroke-width:0.625" />
<path d="M53.433,93.125L58.433,93.125" style="fill:none;stroke:#000000;stroke-width:0.625" />
<path d="M53.433,110.5L58.433,110.5" style="fill:none;stroke:#000000;stroke-width:0.625" />
<path d="M53.433,127.87L58.433,127.87" style="fill:none;stroke:#000000;stroke-width:0.625" />
<path d="M53.433,145.25L58.433,145.25" style="fill:none;stroke:#000000;stroke-width:0.625" />
<path d="M53.433,162.62L58.433,162.62" style="fill:none;stroke:#000000;stroke-width:0.625" />
<path d="M53.433,180L58.433,180" style="fill:none;stroke:#000000;stroke-width:0.625" />
<path d="M58.433,6.25L58.433,180" style="fill:none;stroke:#000000;stroke-width:0.625" />
<path d="M71.87,93.125A3.125,3.125 0 1 1 65.62,93.125A3.125,3.125 0 1 1 71.87,93.125Z" style="fill:none;stroke:#000000;stroke-width:0.625" />
<path d="M91.124,93.125A3.125,3.125 0 1 1 84.874,93.125A3.125,3.125 0 1 1 91.124,93.125Z" style="fill:none;stroke:#000000;stroke-width:0.625" />
<path d="M225.45,93.125A3.125,3.125 0 1 1 219.2,93.125A3.125,3.125 0 1 1 225.45,93.125Z" style="fill:none;stroke:#000000;stroke-width:0.625" />
<path d="M360,93.125A3.125,3.125 0 1 1 353.75,93.125A3.125,3.125 0 1 1 360,93.125Z" style="fill:none;stroke:#000000;stroke-width:0.625" />
</g>
</svg>
